<?xml version="1.0" encoding="UTF-8" standalone="no"?>
<!DOCTYPE svg PUBLIC "-//W3C//DTD SVG 1.1//EN" "http://www.w3.org/Graphics/SVG/1.1/DTD/svg11.dtd">
<svg xmlns="http://www.w3.org/2000/svg" version="1.1" viewBox="0.00 0.00 423.00 154.00">
<path fill="#000000" d="
  M 87.40 65.08
  Q 87.50 53.75 87.39 36.03
  C 87.31 24.41 72.11 20.60 66.75 31.25
  Q 65.68 33.36 65.69 38.45
  Q 65.69 39.41 65.74 55.19
  A 1.53 1.52 -11.8 0 1 64.82 56.59
  Q 58.84 59.17 54.48 63.69
  A 1.91 1.90 -63.6 0 1 52.84 64.25
  Q 51.47 64.05 51.45 62.48
  Q 51.44 61.16 51.31 44.30
  Q 51.21 31.96 52.75 27.33
  Q 55.95 17.74 66.45 12.67
  Q 72.29 9.85 79.66 10.71
  C 89.47 11.86 97.57 18.70 100.65 28.07
  Q 102.03 32.28 101.91 43.05
  Q 101.81 51.60 101.83 61.23
  Q 101.85 71.91 100.67 75.70
  C 97.67 85.40 89.31 92.08 79.02 93.40
  Q 75.61 93.83 73.66 92.79
  Q 68.61 90.11 69.61 84.90
  Q 70.20 81.84 72.90 80.27
  Q 74.01 79.63 77.82 79.00
  Q 83.56 78.05 85.88 73.79
  Q 87.34 71.10 87.40 65.08
  Z"
/>
<rect fill="#000000" x="-5.06" y="-5.06" transform="translate(188.82,26.31) rotate(0.1)" width="10.12" height="10.12" rx="0.38"/>
<path fill="#000000" d="
  M 396.18 80.37
  L 380.61 80.37
  A 0.33 0.33 0.0 0 1 380.34 80.23
  L 373.81 70.71
  A 0.33 0.33 0.0 0 1 373.75 70.53
  L 373.75 47.57
  A 0.33 0.33 0.0 0 1 373.85 47.33
  L 380.45 40.73
  A 0.33 0.33 0.0 0 1 380.69 40.63
  L 395.92 40.63
  A 0.33 0.33 0.0 0 1 396.09 40.67
  L 399.37 42.57
  A 0.33 0.33 0.0 0 0 399.87 42.29
  L 399.87 25.33
  A 0.33 0.33 0.0 0 1 400.20 25.00
  L 408.29 25.00
  A 0.33 0.33 0.0 0 1 408.62 25.33
  L 408.62 80.05
  A 0.33 0.33 0.0 0 1 408.29 80.38
  L 400.20 80.38
  A 0.33 0.33 0.0 0 1 399.87 80.05
  L 399.87 78.54
  A 0.33 0.33 0.0 0 0 399.35 78.26
  L 396.36 80.31
  A 0.33 0.33 0.0 0 1 396.18 80.37
  Z
  M 382.51 60.50
  Q 382.51 64.86 382.59 68.86
  A 3.46 3.46 0.0 0 0 386.05 72.26
  L 397.95 72.26
  A 1.90 1.90 0.0 0 0 399.85 70.40
  Q 399.89 68.84 399.89 60.53
  Q 399.89 56.16 399.81 52.17
  A 3.46 3.46 0.0 0 0 396.35 48.77
  L 384.45 48.77
  A 1.90 1.90 0.0 0 0 382.54 50.62
  Q 382.51 52.19 382.51 60.50
  Z"
/>
<path fill="#000000" d="
  M 286.85 57.70
  L 281.54 63.01
  Q 281.13 63.42 281.13 64.00
  L 281.13 80.07
  Q 281.13 80.37 280.82 80.37
  L 272.85 80.37
  Q 272.50 80.37 272.50 80.02
  L 272.50 26.74
  Q 272.50 26.38 272.87 26.38
  L 280.75 26.38
  Q 281.13 26.38 281.13 26.76
  L 281.13 51.42
  Q 281.13 51.79 281.38 51.53
  L 294.33 38.58
  A 0.73 0.72 22.2 0 1 294.84 38.37
  L 304.65 38.37
  Q 305.80 38.37 304.98 39.19
  L 293.42 50.75
  Q 293.04 51.13 293.34 51.57
  Q 302.05 64.39 305.93 70.16
  Q 307.12 71.93 307.26 73.93
  Q 307.31 74.61 307.43 78.82
  Q 307.48 80.41 305.88 80.41
  L 300.01 80.41
  Q 298.61 80.41 298.61 79.01
  L 298.61 74.28
  Q 298.61 73.81 298.34 73.42
  L 287.58 57.76
  Q 287.26 57.29 286.85 57.70
  Z"
/>
<path fill="#000000" d="
  M 147.11 71.72
  L 147.11 67.94
  Q 147.11 66.97 148.08 66.97
  L 154.55 66.97
  Q 155.77 66.97 155.77 68.19
  L 155.77 79.81
  Q 155.77 80.38 155.20 80.38
  L 127.99 80.38
  A 0.81 0.80 72.6 0 1 127.33 80.03
  L 121.21 71.11
  Q 120.87 70.63 120.87 70.04
  L 120.87 30.37
  Q 120.87 29.88 121.36 29.88
  L 129.25 29.88
  Q 129.63 29.88 129.63 30.25
  L 129.63 68.41
  A 3.85 3.85 0.0 0 0 133.48 72.26
  L 146.56 72.26
  A 0.55 0.54 -0.0 0 0 147.11 71.72
  Z"
/>
<path fill="#000000" d="
  M 184.57 50.17
  L 182.57 47.28
  A 0.34 0.34 0.0 0 0 182.29 47.13
  L 174.84 47.13
  A 0.34 0.34 0.0 0 1 174.50 46.79
  L 174.50 39.60
  A 0.34 0.34 0.0 0 1 174.84 39.26
  L 186.33 39.26
  A 0.34 0.34 0.0 0 1 186.61 39.41
  L 192.94 48.61
  A 0.34 0.34 0.0 0 1 193.00 48.81
  L 193.00 72.17
  A 0.34 0.34 0.0 0 0 193.34 72.51
  L 205.91 72.51
  A 0.34 0.34 0.0 0 1 206.25 72.85
  L 206.25 80.04
  A 0.34 0.34 0.0 0 1 205.91 80.38
  L 171.85 80.38
  A 0.34 0.34 0.0 0 1 171.51 80.04
  L 171.51 72.84
  A 0.34 0.34 0.0 0 1 171.85 72.50
  L 184.29 72.50
  A 0.34 0.34 0.0 0 0 184.63 72.16
  L 184.63 50.37
  A 0.34 0.34 0.0 0 0 184.57 50.17
  Z"
/>
<path fill="#000000" d="
  M 231.33 42.72
  L 233.82 41.01
  Q 234.38 40.63 235.06 40.63
  L 249.72 40.63
  Q 250.23 40.63 250.55 41.08
  L 256.40 49.60
  Q 256.75 50.11 256.75 50.73
  L 256.75 80.07
  Q 256.75 80.37 256.45 80.37
  L 248.37 80.37
  Q 248.11 80.37 248.11 80.11
  L 248.11 52.62
  A 3.88 3.88 0.0 0 0 244.23 48.74
  L 232.82 48.74
  A 2.20 2.19 90.0 0 0 230.63 50.94
  L 230.63 80.01
  Q 230.63 80.38 230.26 80.38
  L 222.36 80.38
  Q 222.00 80.38 222.00 80.01
  L 222.00 41.06
  Q 222.00 40.62 222.44 40.62
  L 230.03 40.62
  Q 230.60 40.62 230.60 41.20
  L 230.60 42.34
  Q 230.60 43.22 231.33 42.72
  Z"
/>
<path fill="#000000" d="
  M 331.69 63.99
  Q 330.86 68.68 333.67 71.63
  Q 334.02 72.00 334.53 72.00
  L 347.45 72.00
  A 0.70 0.69 22.8 0 0 347.93 71.81
  L 351.10 68.63
  Q 351.77 67.96 352.36 68.70
  L 356.14 73.42
  Q 356.87 74.32 356.04 75.15
  L 351.15 80.04
  Q 350.81 80.38 350.34 80.38
  L 330.03 80.38
  Q 329.59 80.38 329.34 80.01
  L 323.56 71.60
  Q 323.25 71.15 323.25 70.60
  L 323.25 47.62
  A 1.14 1.12 67.7 0 1 323.58 46.82
  L 329.60 40.80
  Q 329.91 40.50 330.34 40.50
  L 350.48 40.50
  A 0.94 0.93 72.6 0 1 351.25 40.91
  L 357.38 49.83
  Q 357.73 50.34 357.29 50.78
  L 344.91 63.16
  Q 344.57 63.51 344.08 63.51
  L 332.27 63.51
  Q 331.78 63.51 331.69 63.99
  Z
  M 341.73 55.90
  L 346.30 51.32
  A 1.44 1.43 -67.5 0 0 345.29 48.87
  L 334.16 48.87
  A 2.57 2.56 -90.0 0 0 331.60 51.44
  L 331.60 54.31
  Q 331.60 56.15 333.44 56.15
  L 341.12 56.15
  Q 341.48 56.15 341.73 55.90
  Z"
/>
<path fill="#000000" d="
  M 67.21 79.39
  Q 65.76 82.08 65.70 88.09
  Q 65.62 99.42 65.75 117.14
  C 65.84 128.75 81.04 132.54 86.39 121.89
  Q 87.45 119.78 87.44 114.69
  Q 87.44 113.73 87.37 97.96
  A 1.53 1.52 -11.9 0 1 88.29 96.56
  Q 94.26 93.97 98.62 89.45
  A 1.91 1.90 -63.7 0 1 100.25 88.89
  Q 101.62 89.08 101.65 90.65
  Q 101.66 91.97 101.81 108.83
  Q 101.92 121.16 100.39 125.79
  Q 97.20 135.38 86.71 140.46
  Q 80.87 143.29 73.50 142.44
  C 63.69 141.30 55.59 134.47 52.50 125.11
  Q 51.12 120.90 51.22 110.13
  Q 51.31 101.59 51.28 91.96
  Q 51.25 81.28 52.43 77.49
  C 55.42 67.79 63.77 61.11 74.05 59.77
  Q 77.46 59.34 79.41 60.38
  Q 84.46 63.05 83.47 68.26
  Q 82.88 71.32 80.18 72.89
  Q 79.07 73.53 75.27 74.17
  Q 69.53 75.12 67.21 79.39
  Z"
/>
<path fill="#000000" d="
  M 181.30 109.24
  A 0.57 0.57 0.0 0 0 181.87 108.67
  L 181.88 100.29
  A 0.41 0.41 0.0 0 1 182.29 99.88
  L 187.28 99.89
  Q 187.75 99.89 187.75 100.35
  L 187.74 108.76
  Q 187.74 109.26 188.24 109.26
  L 195.22 109.27
  Q 195.47 109.27 195.47 109.52
  L 195.47 114.51
  Q 195.46 114.75 195.22 114.75
  L 188.23 114.74
  Q 187.75 114.74 187.75 115.22
  L 187.73 128.07
  A 2.31 2.31 0.0 0 0 190.04 130.38
  L 192.59 130.39
  Q 193.16 130.39 193.56 129.99
  L 196.38 127.18
  Q 196.56 127.01 196.69 127.22
  L 199.45 131.23
  A 0.45 0.44 50.6 0 1 199.40 131.80
  L 195.58 135.60
  Q 195.29 135.89 194.88 135.88
  L 186.75 135.87
  Q 186.26 135.87 185.98 135.46
  L 182.14 129.86
  Q 181.84 129.43 181.85 128.90
  L 181.87 115.29
  Q 181.87 114.75 181.33 114.75
  L 178.77 114.75
  Q 178.04 114.75 178.04 114.02
  L 178.05 110.00
  Q 178.05 109.23 178.83 109.23
  L 181.30 109.24
  Z"
/>
<path fill="#000000" d="
  M 340.63 108.67
  L 340.63 100.28
  A 0.41 0.41 0.0 0 1 341.04 99.87
  L 346.04 99.87
  Q 346.51 99.87 346.51 100.33
  L 346.51 108.75
  Q 346.51 109.25 347.01 109.25
  L 354.00 109.25
  Q 354.25 109.25 354.25 109.50
  L 354.25 114.50
  Q 354.25 114.74 354.01 114.74
  L 347.01 114.74
  Q 346.53 114.74 346.53 115.22
  L 346.53 128.08
  A 2.31 2.31 0.0 0 0 348.84 130.39
  L 351.40 130.39
  Q 351.97 130.39 352.37 129.99
  L 355.18 127.18
  Q 355.36 127.00 355.50 127.21
  L 358.26 131.22
  A 0.45 0.45 0.0 0 1 358.21 131.79
  L 354.40 135.60
  Q 354.11 135.89 353.70 135.89
  L 345.56 135.89
  Q 345.07 135.89 344.79 135.48
  L 340.94 129.88
  Q 340.64 129.45 340.64 128.92
  L 340.64 115.30
  Q 340.64 114.76 340.10 114.76
  L 337.54 114.76
  Q 336.81 114.76 336.81 114.03
  L 336.81 110.01
  Q 336.81 109.24 337.59 109.24
  L 340.06 109.24
  A 0.57 0.57 0.0 0 0 340.63 108.67
  Z"
/>
<path fill="#000000" d="
  M 136.31 102.25
  L 143.20 112.26
  A 0.31 0.31 0.0 0 1 143.25 112.44
  L 143.25 131.19
  A 0.31 0.31 0.0 0 1 143.16 131.41
  L 138.77 135.79
  A 0.31 0.31 0.0 0 1 138.55 135.88
  L 120.31 135.88
  A 0.31 0.31 0.0 0 1 120.00 135.57
  L 120.00 102.43
  A 0.31 0.31 0.0 0 1 120.31 102.12
  L 136.06 102.12
  A 0.31 0.31 0.0 0 1 136.31 102.25
  Z
  M 137.37 113.61
  A 0.50 0.50 0.0 0 0 137.28 113.32
  L 133.51 107.84
  A 0.50 0.50 0.0 0 0 133.10 107.62
  L 126.25 107.62
  A 0.50 0.50 0.0 0 0 125.75 108.12
  L 125.75 129.87
  A 0.50 0.50 0.0 0 0 126.25 130.37
  L 136.87 130.37
  A 0.50 0.50 0.0 0 0 137.37 129.87
  L 137.37 113.61
  Z"
/>
<path fill="#000000" d="
  M 265.56 107.63
  L 257.27 107.63
  A 1.38 1.38 0.0 0 0 255.89 109.01
  L 255.89 127.76
  A 2.63 2.63 0.0 0 0 258.52 130.39
  L 266.05 130.39
  Q 266.61 130.39 267.01 130.00
  L 269.52 127.49
  Q 269.97 127.04 270.33 127.56
  L 272.74 131.07
  Q 273.04 131.50 272.67 131.87
  L 268.98 135.56
  A 1.11 1.09 22.0 0 1 268.20 135.88
  L 255.03 135.88
  Q 254.51 135.88 254.22 135.45
  L 250.44 129.96
  Q 250.12 129.49 250.12 128.93
  L 250.12 107.01
  Q 250.12 106.50 250.48 106.14
  L 254.11 102.52
  Q 254.50 102.12 255.06 102.12
  L 268.48 102.12
  Q 268.93 102.12 269.19 102.50
  L 272.77 107.71
  Q 272.98 108.02 272.72 108.28
  L 269.26 111.74
  Q 269.04 111.96 268.87 111.70
  L 266.35 108.04
  Q 266.07 107.63 265.56 107.63
  Z"
/>
<path fill="#000000" d="
  M 165.12 134.64
  C 164.04 135.27 163.45 135.87 162.23 135.87
  Q 154.26 135.89 153.06 135.86
  A 0.69 0.68 72.8 0 1 152.52 135.57
  L 148.76 130.09
  A 3.35 3.35 0.0 0 1 149.16 125.82
  L 155.97 119.00
  Q 156.22 118.76 156.56 118.76
  L 165.26 118.76
  Q 165.76 118.76 165.76 118.25
  L 165.76 115.01
  Q 165.76 114.51 165.26 114.51
  L 152.56 114.51
  A 0.44 0.44 0.0 0 1 152.12 114.07
  L 152.12 109.73
  Q 152.12 109.27 152.58 109.27
  L 167.72 109.27
  Q 168.27 109.27 168.58 109.72
  L 171.37 113.78
  Q 171.64 114.17 171.64 114.64
  L 171.64 135.47
  A 0.41 0.40 -0.0 0 1 171.23 135.87
  L 166.25 135.87
  Q 165.73 135.87 165.73 135.35
  L 165.73 134.99
  Q 165.73 134.28 165.12 134.64
  Z
  M 165.63 130.12
  L 165.63 124.57
  Q 165.63 124.26 165.33 124.26
  L 158.67 124.26
  A 1.10 1.06 -66.7 0 0 157.91 124.58
  L 154.98 127.52
  A 1.67 1.67 0.0 0 0 156.16 130.38
  L 165.38 130.38
  A 0.26 0.25 90.0 0 0 165.63 130.12
  Z"
/>
<path fill="#000000" d="
  M 223.43 135.00
  Q 223.43 134.29 222.82 134.65
  C 221.74 135.27 221.15 135.87 219.93 135.87
  Q 211.95 135.87 210.75 135.84
  A 0.69 0.68 72.9 0 1 210.21 135.55
  L 206.46 130.06
  A 3.35 3.35 0.0 0 1 206.87 125.79
  L 213.70 118.98
  Q 213.95 118.74 214.29 118.74
  L 223.00 118.76
  Q 223.50 118.76 223.50 118.25
  L 223.51 115.01
  Q 223.51 114.51 223.01 114.51
  L 210.30 114.48
  A 0.44 0.44 0.0 0 1 209.86 114.04
  L 209.87 109.69
  Q 209.87 109.23 210.33 109.23
  L 225.48 109.27
  Q 226.03 109.27 226.34 109.72
  L 229.12 113.79
  Q 229.39 114.18 229.39 114.65
  L 229.35 135.49
  A 0.41 0.40 0.1 0 1 228.93 135.89
  L 223.95 135.88
  Q 223.43 135.88 223.43 135.36
  L 223.43 135.00
  Z
  M 223.37 130.12
  L 223.36 124.54
  Q 223.36 124.23 223.06 124.23
  L 216.37 124.24
  A 1.10 1.06 -66.8 0 0 215.61 124.56
  L 212.67 127.52
  A 1.68 1.68 0.0 0 0 213.85 130.39
  L 223.12 130.38
  A 0.26 0.25 89.9 0 0 223.37 130.12
  Z"
/>
<path fill="#000000" d="
  M 285.44 124.48
  Q 283.54 124.48 283.95 126.33
  L 284.39 128.31
  Q 284.83 130.25 286.82 130.26
  L 294.38 130.26
  A 0.83 0.78 21.2 0 0 294.95 130.03
  L 296.97 128.01
  Q 297.65 127.33 298.20 128.13
  L 300.33 131.22
  Q 300.78 131.87 300.22 132.43
  L 297.04 135.60
  Q 296.77 135.88 296.38 135.88
  L 283.25 135.88
  A 0.84 0.84 0.0 0 1 282.56 135.52
  L 278.82 130.06
  Q 278.52 129.61 278.52 129.07
  L 278.52 113.94
  A 1.06 1.06 0.0 0 1 278.83 113.19
  L 282.42 109.60
  Q 282.77 109.24 283.27 109.24
  L 296.39 109.24
  A 1.14 1.13 72.8 0 1 297.33 109.74
  L 301.15 115.32
  Q 301.49 115.80 301.07 116.22
  L 293.03 124.27
  A 0.76 0.75 -66.4 0 1 292.51 124.48
  L 285.44 124.48
  Z
  M 284.13 118.66
  Q 284.13 119.65 285.11 119.65
  L 289.54 119.65
  Q 291.21 119.65 292.25 118.33
  L 293.81 116.35
  Q 295.03 114.79 293.05 114.79
  L 285.48 114.79
  A 1.36 1.35 -90.0 0 0 284.13 116.15
  L 284.13 118.66
  Z"
/>
<path fill="#000000" d="
  M 313.61 110.51
  Q 314.88 109.82 315.15 109.68
  Q 315.86 109.31 316.70 109.29
  Q 320.35 109.20 325.50 109.27
  Q 326.05 109.28 326.36 109.73
  L 330.14 115.24
  A 1.34 1.34 0.0 0 1 330.37 115.99
  L 330.37 135.50
  A 0.38 0.37 -90.0 0 1 330.00 135.88
  L 325.06 135.88
  A 0.45 0.44 0.0 0 1 324.61 135.44
  L 324.61 117.07
  A 2.32 2.32 0.0 0 0 322.29 114.75
  L 314.14 114.75
  A 1.15 1.14 -90.0 0 0 313.00 115.90
  L 313.00 135.45
  Q 313.00 135.88 312.57 135.88
  L 307.48 135.88
  Q 307.12 135.88 307.12 135.52
  L 307.12 109.89
  Q 307.12 109.25 307.76 109.25
  L 312.40 109.25
  Q 312.98 109.25 312.98 109.82
  L 312.98 110.13
  Q 312.98 110.86 313.61 110.51
  Z"
/>
<path fill="#000000" d="
  M 372.03 124.49
  Q 370.13 124.49 370.54 126.34
  L 370.98 128.32
  Q 371.42 130.26 373.41 130.26
  L 380.96 130.26
  A 0.83 0.78 21.2 0 0 381.53 130.03
  L 383.55 128.01
  Q 384.23 127.33 384.78 128.13
  L 386.91 131.22
  Q 387.36 131.87 386.80 132.43
  L 383.62 135.60
  Q 383.35 135.88 382.96 135.88
  L 369.84 135.88
  A 0.84 0.84 0.0 0 1 369.15 135.52
  L 365.41 130.07
  Q 365.11 129.62 365.11 129.08
  L 365.11 113.96
  A 1.06 1.06 0.0 0 1 365.42 113.21
  L 369.01 109.62
  Q 369.36 109.26 369.86 109.26
  L 382.97 109.26
  A 1.14 1.13 72.7 0 1 383.91 109.76
  L 387.73 115.33
  Q 388.07 115.81 387.65 116.23
  L 379.61 124.28
  A 0.76 0.75 -66.4 0 1 379.09 124.49
  L 372.03 124.49
  Z
  M 370.64 118.67
  Q 370.64 119.66 371.62 119.66
  L 376.06 119.66
  Q 377.74 119.66 378.78 118.33
  L 380.34 116.35
  Q 381.56 114.78 379.58 114.78
  L 371.99 114.79
  A 1.36 1.35 90.0 0 0 370.64 116.15
  L 370.64 118.67
  Z"
/>
<path fill="#000000" d="
  M 404.34 130.39
  L 410.45 130.39
  A 0.30 0.30 0.0 0 1 410.75 130.69
  L 410.75 135.54
  Q 410.75 135.88 410.41 135.88
  L 393.63 135.88
  A 0.38 0.37 90.0 0 1 393.26 135.50
  L 393.26 130.57
  Q 393.26 130.38 393.45 130.38
  L 397.54 130.38
  Q 398.12 130.38 398.12 129.80
  L 398.12 117.26
  A 2.52 2.52 0.0 0 0 395.60 114.74
  L 393.95 114.74
  Q 393.25 114.74 393.25 114.04
  L 393.25 109.94
  Q 393.25 109.07 394.11 109.23
  Q 394.79 109.35 395.84 109.19
  Q 396.32 109.11 397.45 109.77
  Q 398.68 110.49 400.22 111.51
  Q 400.67 111.81 401.06 111.42
  L 402.87 109.62
  A 1.26 1.22 21.9 0 1 403.75 109.26
  L 413.42 109.26
  Q 414.05 109.26 414.40 109.78
  L 417.10 113.70
  Q 417.39 114.12 416.97 114.42
  L 413.42 116.85
  Q 412.90 117.21 412.55 116.69
  L 411.52 115.19
  Q 411.21 114.74 410.67 114.74
  L 406.20 114.74
  A 2.32 2.32 0.0 0 0 403.88 117.06
  L 403.88 129.93
  Q 403.88 130.39 404.34 130.39
  Z"
/>
</svg>
